<svg width="167" height="251" viewBox="0 0 167 251" fill="none" xmlns="http://www.w3.org/2000/svg">
<g clip-path="url(#clip0_2502_2)">
<path d="M-0.0541992 209.496C-0.0541992 186.362 18.6998 167.608 41.8338 167.608H83.7198V209.496C83.7198 232.63 64.9678 251.384 41.8338 251.384C18.6998 251.384 -0.0541992 232.63 -0.0541992 209.496Z" fill="#24CB71"/>
<path d="M83.7197 0.0579834V83.832H125.608C148.742 83.832 167.496 65.08 167.496 41.946C167.496 18.812 148.742 0.0579834 125.608 0.0579834H83.7197Z" fill="#FF7237"/>
<path d="M125.26 167.608C148.394 167.608 167.148 148.854 167.148 125.72C167.148 102.586 148.394 83.8324 125.26 83.8324C102.126 83.8324 83.3726 102.586 83.3726 125.72C83.3726 148.854 102.126 167.608 125.26 167.608Z" fill="#00B6FF"/>
<path d="M-0.0541992 41.946C-0.0541992 65.08 18.6998 83.834 41.8338 83.834H83.7198V0.0579834H41.8338C18.6998 0.0579834 -0.0541992 18.812 -0.0541992 41.946Z" fill="#FF3737"/>
<path d="M-0.0541992 125.72C-0.0541992 148.854 18.6998 167.608 41.8338 167.608H83.7198V83.834H41.8338C18.6998 83.834 -0.0541992 102.586 -0.0541992 125.72Z" fill="#874FFF"/>
</g>
<defs>
<clipPath id="clip0_2502_2">
<rect width="167" height="251" fill="white"/>
</clipPath>
</defs>
</svg>
